# Blender v2.93.6 OBJ File: ''
# www.blender.org
mtllib BFan_1Mat_Scaled_0_1.mtl
o BFan
v 0.064844 -0.058594 0.194531
v 0.033203 -0.012891 0.221094
v 0.064844 -0.100781 0.218750
v 0.033203 -0.100781 0.271484
v 0.064844 -0.142969 0.194531
v 0.033203 -0.188281 0.221094
v 0.064844 -0.142969 0.146094
v 0.033203 -0.188281 0.119531
v 0.064844 -0.100781 0.121484
v 0.033203 -0.100781 0.069141
v 0.064844 -0.058594 0.146094
v 0.033203 -0.012891 0.119531
v 0.064844 -0.058594 0.194531
v 0.033203 -0.012891 0.221094
v 0.033203 -0.188281 0.119531
v -0.033203 -0.188281 0.119531
v 0.033203 -0.100781 0.069141
v -0.033203 -0.100781 0.069141
v 0.033203 -0.012891 0.119531
v -0.033203 -0.012891 0.119531
v 0.033203 -0.012891 0.221094
v -0.033203 -0.012891 0.221094
v 0.033203 -0.100781 0.271484
v -0.033203 -0.100781 0.271484
v 0.033203 -0.188281 0.221094
v -0.033203 -0.188281 0.221094
v 0.033203 -0.188281 0.119531
v -0.033203 -0.188281 0.119531
v 0.030469 0.010938 -0.250000
v 0.027734 -0.066797 -0.144922
v 0.032031 -0.100781 -0.269922
v 0.027734 -0.134766 -0.144922
v 0.030469 -0.212891 -0.250000
v -0.033203 -0.012891 0.221094
v -0.064844 -0.058594 0.194531
v -0.033203 -0.100781 0.271484
v -0.064844 -0.100781 0.218750
v -0.033203 -0.188281 0.221094
v -0.064844 -0.142969 0.194531
v -0.033203 -0.188281 0.119531
v -0.064844 -0.142969 0.146094
v -0.033203 -0.100781 0.069141
v -0.064844 -0.100781 0.121484
v -0.033203 -0.012891 0.119531
v -0.064844 -0.058594 0.146094
v -0.033203 -0.012891 0.221094
v -0.064844 -0.058594 0.194531
v 0.029297 -0.054297 0.241406
v -0.029297 -0.054297 0.241406
v 0.037500 -0.026172 0.887891
v -0.037500 -0.026172 0.887891
v -0.029297 -0.054297 0.241406
v -0.029297 -0.146875 0.241406
v -0.037500 -0.026172 0.887891
v -0.037500 -0.175391 0.887891
v 0.030469 0.010938 -0.250000
v 0.032031 -0.100781 -0.269922
v -0.030469 0.010938 -0.250000
v -0.032031 -0.100781 -0.269922
v -0.037500 -0.175391 0.887891
v -0.029297 -0.146875 0.241406
v 0.037500 -0.175391 0.887891
v 0.029297 -0.146875 0.241406
v 0.029297 -0.054297 0.241406
v 0.037500 -0.026172 0.887891
v 0.029297 -0.146875 0.241406
v 0.037500 -0.175391 0.887891
v 0.037500 -0.175391 0.887891
v 0.037500 -0.026172 0.887891
v -0.037500 -0.175391 0.887891
v -0.037500 -0.026172 0.887891
v -0.027734 -0.066797 -0.144922
v -0.027734 -0.134766 -0.144922
v -0.027734 -0.066797 0.091406
v -0.027734 -0.134766 0.091406
v 0.027734 -0.066797 -0.144922
v -0.027734 -0.066797 -0.144922
v 0.027734 -0.066797 0.091406
v -0.027734 -0.066797 0.091406
v 0.027734 -0.134766 -0.144922
v 0.027734 -0.066797 -0.144922
v 0.027734 -0.134766 0.091406
v 0.027734 -0.066797 0.091406
v -0.027734 -0.134766 -0.144922
v 0.027734 -0.134766 -0.144922
v -0.027734 -0.134766 0.091406
v 0.027734 -0.134766 0.091406
v -0.027734 -0.134766 -0.144922
v -0.027734 -0.066797 -0.144922
v -0.032031 -0.100781 -0.269922
v -0.030469 0.010938 -0.250000
v 0.030469 0.010938 -0.250000
v -0.030469 0.010938 -0.250000
v 0.027734 -0.066797 -0.144922
v -0.027734 -0.066797 -0.144922
v -0.030469 -0.212891 -0.250000
v 0.030469 -0.212891 -0.250000
v -0.027734 -0.134766 -0.144922
v 0.027734 -0.134766 -0.144922
v -0.030469 -0.212891 -0.250000
v -0.032031 -0.100781 -0.269922
v 0.030469 -0.212891 -0.250000
v 0.032031 -0.100781 -0.269922
v -0.032031 -0.100781 -0.269922
v -0.030469 -0.212891 -0.250000
v -0.027734 -0.134766 -0.144922
v -0.064844 -0.142969 0.146094
v -0.064844 -0.142969 0.194531
v -0.064844 -0.100781 0.218750
v -0.064844 -0.142969 0.146094
v -0.064844 -0.100781 0.218750
v -0.064844 -0.058594 0.194531
v -0.064844 -0.142969 0.146094
v -0.064844 -0.058594 0.194531
v -0.064844 -0.058594 0.146094
v -0.064844 -0.142969 0.146094
v -0.064844 -0.058594 0.146094
v -0.064844 -0.100781 0.121484
v 0.064844 -0.100781 0.121484
v 0.064844 -0.058594 0.146094
v 0.064844 -0.058594 0.194531
v 0.064844 -0.100781 0.121484
v 0.064844 -0.058594 0.194531
v 0.064844 -0.100781 0.218750
v 0.064844 -0.100781 0.121484
v 0.064844 -0.100781 0.218750
v 0.064844 -0.142969 0.194531
v 0.064844 -0.100781 0.121484
v 0.064844 -0.142969 0.194531
v 0.064844 -0.142969 0.146094
v -0.019141 -0.593360 0.697656
v -0.019141 -0.396485 0.818750
v -0.014453 -0.134375 0.169141
v 0.019141 0.391797 0.697656
v 0.019141 0.194922 0.818750
v 0.014453 -0.066797 0.169141
v 0.000000 0.546484 0.493360
v 0.000000 0.391797 0.697656
v 0.019141 0.391797 0.697656
v 0.000000 0.546484 0.493360
v 0.019141 0.391797 0.697656
v 0.019141 0.546484 0.493360
v 0.000000 0.546484 0.493360
v 0.019141 0.546484 0.493360
v 0.014453 -0.066797 0.169141
v 0.000000 0.546484 0.493360
v 0.014453 -0.066797 0.169141
v 0.000000 -0.066797 0.169141
v 0.000000 -0.030469 0.868359
v 0.019141 -0.030469 0.868359
v 0.019141 0.194922 0.818750
v 0.000000 -0.030469 0.868359
v 0.019141 0.194922 0.818750
v 0.000000 0.194922 0.818750
v 0.000000 -0.066797 0.169141
v 0.000000 0.391797 0.697656
v 0.000000 0.546484 0.493360
v 0.014453 -0.066797 0.169141
v 0.019141 0.194922 0.818750
v 0.019141 -0.030469 0.868359
v 0.019141 0.391797 0.697656
v 0.000000 0.391797 0.697656
v 0.000000 0.194922 0.818750
v 0.019141 0.391797 0.697656
v 0.000000 0.194922 0.818750
v 0.019141 0.194922 0.818750
v 0.000000 -0.030469 0.868359
v 0.000000 0.194922 0.818750
v 0.000000 -0.066797 0.169141
v 0.000000 0.194922 0.818750
v 0.000000 0.391797 0.697656
v 0.000000 -0.066797 0.169141
v 0.019141 0.546484 0.493360
v 0.019141 0.391797 0.697656
v 0.014453 -0.066797 0.169141
v 0.000000 -0.748047 0.493359
v 0.000000 -0.593360 0.697656
v -0.019141 -0.593360 0.697656
v 0.000000 -0.748047 0.493359
v -0.019141 -0.593360 0.697656
v -0.019141 -0.748047 0.493359
v 0.000000 -0.748047 0.493359
v -0.019141 -0.748047 0.493359
v -0.014453 -0.134375 0.169141
v 0.000000 -0.748047 0.493359
v -0.014453 -0.134375 0.169141
v 0.000000 -0.134375 0.169141
v 0.000000 -0.170703 0.868359
v -0.019141 -0.170703 0.868359
v -0.019141 -0.396485 0.818750
v 0.000000 -0.170703 0.868359
v -0.019141 -0.396485 0.818750
v 0.000000 -0.396485 0.818750
v 0.000000 -0.134375 0.169141
v 0.000000 -0.593360 0.697656
v 0.000000 -0.748047 0.493359
v -0.014453 -0.134375 0.169141
v -0.019141 -0.396485 0.818750
v -0.019141 -0.170703 0.868359
v -0.019141 -0.593360 0.697656
v 0.000000 -0.593360 0.697656
v 0.000000 -0.396485 0.818750
v -0.019141 -0.593360 0.697656
v 0.000000 -0.396485 0.818750
v -0.019141 -0.396485 0.818750
v 0.000000 -0.170703 0.868359
v 0.000000 -0.396485 0.818750
v 0.000000 -0.134375 0.169141
v 0.000000 -0.396485 0.818750
v 0.000000 -0.593360 0.697656
v 0.000000 -0.134375 0.169141
v -0.019141 -0.748047 0.493359
v -0.019141 -0.593360 0.697656
v -0.014453 -0.134375 0.169141
v 0.037500 -0.082813 0.669141
v 0.037500 -0.118360 0.669141
v 0.030469 -0.118359 0.272656
v 0.037500 -0.082813 0.669141
v 0.030469 -0.118359 0.272656
v 0.030469 -0.082813 0.272656
v -0.030469 -0.082813 0.272656
v -0.030469 -0.118359 0.272656
v -0.037500 -0.118360 0.669141
v -0.030469 -0.082813 0.272656
v -0.037500 -0.118360 0.669141
v -0.037500 -0.082813 0.669141
vt 0.537731 0.956548
vt 0.555545 0.988965
vt 0.544700 0.943895
vt 0.580299 0.943895
vt 0.537731 0.931242
vt 0.555545 0.898825
vt 0.523822 0.931242
vt 0.506038 0.898825
vt 0.516883 0.943895
vt 0.481255 0.943895
vt 0.523822 0.956548
vt 0.506038 0.988965
vt 0.537731 0.956548
vt 0.555545 0.988965
vt 0.210588 0.529985
vt 0.011748 0.529985
vt 0.210588 0.510429
vt 0.011748 0.510429
vt 0.210588 0.529985
vt 0.011748 0.529985
vt 0.210588 0.547990
vt 0.011748 0.547990
vt 0.210588 0.557406
vt 0.011748 0.557406
vt 0.210588 0.547990
vt 0.011748 0.547990
vt 0.210588 0.529985
vt 0.011748 0.529985
vt 0.565068 0.877435
vt 0.450403 0.843673
vt 0.565068 0.804072
vt 0.450403 0.768655
vt 0.565068 0.730710
vt 0.555545 0.988965
vt 0.537731 0.956548
vt 0.580299 0.943895
vt 0.544700 0.943895
vt 0.555545 0.898825
vt 0.537731 0.931242
vt 0.506038 0.898825
vt 0.523822 0.931242
vt 0.481255 0.943895
vt 0.516883 0.943895
vt 0.506038 0.988965
vt 0.523822 0.956548
vt 0.555545 0.988965
vt 0.537731 0.956548
vt 0.903207 0.512646
vt 0.935771 0.512646
vt 0.904619 0.746097
vt 0.934389 0.746097
vt 0.892813 0.512099
vt 0.838168 0.512099
vt 0.904619 0.746097
vt 0.826663 0.746097
vt 0.565068 0.877435
vt 0.565068 0.804072
vt 0.565068 0.877435
vt 0.565068 0.804072
vt 0.934389 0.746097
vt 0.935771 0.512646
vt 0.904619 0.746097
vt 0.903207 0.512646
vt 0.892813 0.512099
vt 0.904619 0.746097
vt 0.838168 0.512099
vt 0.826663 0.746097
vt 0.826663 0.746097
vt 0.904619 0.746097
vt 0.826663 0.776268
vt 0.904318 0.776268
vt 0.472693 0.601353
vt 0.472693 0.564620
vt 0.234470 0.601353
vt 0.234470 0.564620
vt 0.472693 0.601353
vt 0.472693 0.601353
vt 0.234470 0.601353
vt 0.234470 0.601353
vt 0.472693 0.564620
vt 0.472693 0.601353
vt 0.234470 0.564620
vt 0.234470 0.601353
vt 0.472693 0.564620
vt 0.472693 0.564620
vt 0.234470 0.564620
vt 0.234470 0.564620
vt 0.450403 0.768655
vt 0.450403 0.843673
vt 0.565068 0.804072
vt 0.565068 0.877435
vt 0.565068 0.877435
vt 0.565068 0.877435
vt 0.450403 0.843673
vt 0.450403 0.843673
vt 0.565068 0.730710
vt 0.565068 0.730710
vt 0.450403 0.768655
vt 0.450403 0.768655
vt 0.565068 0.730710
vt 0.565068 0.804072
vt 0.565068 0.730710
vt 0.565068 0.804072
vt 0.565068 0.804072
vt 0.565068 0.730710
vt 0.450403 0.768655
vt 0.664593 0.898071
vt 0.614215 0.898071
vt 0.589011 0.943259
vt 0.664593 0.898071
vt 0.589011 0.943259
vt 0.614215 0.988448
vt 0.664593 0.898071
vt 0.614215 0.988448
vt 0.664593 0.988448
vt 0.664593 0.898071
vt 0.664593 0.988448
vt 0.689797 0.943259
vt 0.689797 0.943259
vt 0.664593 0.988448
vt 0.614215 0.988448
vt 0.689797 0.943259
vt 0.614215 0.988448
vt 0.589011 0.943259
vt 0.689797 0.943259
vt 0.589011 0.943259
vt 0.614215 0.898071
vt 0.689797 0.943259
vt 0.614215 0.898071
vt 0.664593 0.898071
vt 0.667778 0.488359
vt 0.827023 0.488359
vt 0.827023 0.208773
vt 0.667778 0.488359
vt 0.827023 0.488359
vt 0.827023 0.208773
vt 0.503635 0.488359
vt 0.656813 0.488359
vt 0.656813 0.488359
vt 0.503635 0.488359
vt 0.656813 0.488359
vt 0.503635 0.488359
vt 0.503635 0.488359
vt 0.503635 0.488359
vt 0.656813 0.208773
vt 0.503635 0.488359
vt 0.656813 0.208773
vt 0.656813 0.208773
vt 0.987801 0.488359
vt 0.987801 0.488359
vt 0.831259 0.488359
vt 0.987801 0.488359
vt 0.831259 0.488359
vt 0.831259 0.488359
vt 0.656813 0.208773
vt 0.656813 0.488359
vt 0.503635 0.488359
vt 0.987862 0.208773
vt 0.831259 0.488359
vt 0.987801 0.488359
vt 0.667778 0.488359
vt 0.667778 0.488359
vt 0.827023 0.488359
vt 0.667778 0.488359
vt 0.827023 0.488359
vt 0.827023 0.488359
vt 0.987801 0.488359
vt 0.831259 0.488359
vt 0.987862 0.208773
vt 0.827023 0.488359
vt 0.667778 0.488359
vt 0.827023 0.208773
vt 0.503635 0.488359
vt 0.656813 0.488359
vt 0.656813 0.208773
vt 0.503635 0.488359
vt 0.656813 0.488359
vt 0.656813 0.488359
vt 0.503635 0.488359
vt 0.656813 0.488359
vt 0.503635 0.488359
vt 0.503635 0.488359
vt 0.503635 0.488359
vt 0.656813 0.208773
vt 0.503635 0.488359
vt 0.656813 0.208773
vt 0.656813 0.208773
vt 0.987801 0.488359
vt 0.987801 0.488359
vt 0.831259 0.488359
vt 0.987801 0.488359
vt 0.831259 0.488359
vt 0.831259 0.488359
vt 0.656813 0.208773
vt 0.656813 0.488359
vt 0.503635 0.488359
vt 0.987862 0.208773
vt 0.831259 0.488359
vt 0.987801 0.488359
vt 0.667778 0.488359
vt 0.667778 0.488359
vt 0.827023 0.488359
vt 0.667778 0.488359
vt 0.827023 0.488359
vt 0.827023 0.488359
vt 0.987801 0.488359
vt 0.831259 0.488359
vt 0.987862 0.208773
vt 0.827023 0.488359
vt 0.667778 0.488359
vt 0.827023 0.208773
vt 0.503635 0.488359
vt 0.656813 0.488359
vt 0.656813 0.208773
vt 0.257511 0.487147
vt 0.257511 0.420820
vt 0.441691 0.420820
vt 0.257511 0.487147
vt 0.441691 0.420820
vt 0.441691 0.487147
vt 0.441691 0.487147
vt 0.441691 0.420820
vt 0.257511 0.420820
vt 0.441691 0.487147
vt 0.257511 0.420820
vt 0.257511 0.487147
vn 0.8227 0.2830 0.4930
vn 0.8226 0.2830 0.4933
vn 0.8535 0.0978 0.5119
vn 0.8532 -0.0985 0.5122
vn 0.8529 -0.3946 0.3417
vn 0.8521 -0.4948 0.1709
vn 0.8519 -0.4953 -0.1699
vn 0.8523 -0.3961 -0.3416
vn 0.8526 -0.0980 -0.5133
vn 0.8522 0.0991 -0.5138
vn 0.8527 0.3948 -0.3421
vn 0.8538 0.4919 -0.1707
vn 0.8222 0.5692 0.0000
vn 0.0000 -0.4991 -0.8666
vn 0.0000 -0.1891 -0.9820
vn 0.0000 0.1872 -0.9823
vn 0.0000 0.7545 -0.6563
vn 0.0000 0.9446 -0.3281
vn 0.0000 0.9446 0.3281
vn 0.0000 0.7545 0.6563
vn 0.0000 0.1872 0.9823
vn 0.0000 -0.1891 0.9820
vn 0.0000 -0.7554 0.6552
vn 0.0000 -0.9448 0.3276
vn 0.0000 -1.0000 -0.0000
vn 0.9995 0.0083 0.0321
vn 0.9994 0.0041 0.0332
vn 0.9995 0.0000 0.0325
vn 0.9994 -0.0042 0.0332
vn 0.9995 -0.0082 0.0321
vn -0.8226 0.2828 0.4933
vn -0.8225 0.2830 0.4933
vn -0.8534 0.0975 0.5120
vn -0.8531 -0.0985 0.5124
vn -0.8528 -0.3948 0.3419
vn -0.8521 -0.4947 0.1712
vn -0.8521 -0.4948 -0.1709
vn -0.8518 -0.3966 -0.3423
vn -0.8520 -0.1000 -0.5140
vn -0.8530 0.0974 -0.5128
vn -0.8534 0.3942 -0.3410
vn -0.8536 0.4925 -0.1694
vn -0.8222 0.5692 0.0000
vn 0.0000 0.9991 -0.0435
vn -0.9999 0.0000 -0.0127
vn 0.0000 0.1756 -0.9845
vn 0.0000 -0.9990 -0.0441
vn 0.9999 0.0000 -0.0127
vn 0.0000 0.0000 1.0000
vn -1.0000 0.0000 0.0000
vn 0.0000 1.0000 0.0000
vn 1.0000 0.0000 0.0000
vn -0.9994 0.0000 0.0344
vn -0.9994 0.0041 0.0332
vn -0.9994 0.0042 0.0332
vn -0.9995 0.0083 0.0321
vn 0.0000 0.8039 0.5947
vn 0.0000 -0.8025 0.5967
vn 0.0000 -0.1750 -0.9846
vn -0.9995 -0.0082 0.0321
vn -1.0000 0.0036 -0.0058
vn 1.0000 -0.0036 -0.0058
vn 0.0000 0.7972 0.6037
vn 0.0000 0.4674 -0.8841
vn 0.0000 0.2150 0.9766
vn 1.0000 -0.0015 -0.0066
vn 0.0000 0.5239 0.8518
vn 1.0000 -0.0055 -0.0041
vn 0.0000 -0.7972 0.6037
vn 0.0000 -0.4671 -0.8842
vn 0.0000 -0.2146 0.9767
vn -1.0000 0.0015 -0.0066
vn 0.0000 -0.5239 0.8518
vn -1.0000 0.0055 -0.0041
vn 0.9998 0.0000 -0.0177
vn -0.9998 0.0000 -0.0177
usemtl material_atlas_00001_1
s 1
f 1/1/1 2/2/2 3/3/3
f 4/4/4 3/3/3 2/2/2
f 3/3/3 4/4/4 5/5/5
f 6/6/6 5/5/5 4/4/4
f 5/5/5 6/6/6 7/7/7
f 8/8/8 7/7/7 6/6/6
f 7/7/7 8/8/8 9/9/9
f 10/10/10 9/9/9 8/8/8
f 9/9/9 10/10/10 11/11/11
f 12/12/12 11/11/11 10/10/10
f 11/11/11 12/12/12 13/13/13
f 14/14/13 13/13/13 12/12/12
f 15/15/14 16/16/14 17/17/15
f 18/18/16 17/17/15 16/16/14
f 17/17/15 18/18/16 19/19/17
f 20/20/18 19/19/17 18/18/16
f 19/19/17 20/20/18 21/21/19
f 22/22/20 21/21/19 20/20/18
f 21/21/19 22/22/20 23/23/21
f 24/24/22 23/23/21 22/22/20
f 23/23/21 24/24/22 25/25/23
f 26/26/24 25/25/23 24/24/22
f 25/25/23 26/26/24 27/27/25
f 28/28/25 27/27/25 26/26/24
f 29/29/26 30/30/27 31/31/28
f 32/32/29 31/31/28 30/30/27
f 31/31/28 32/32/29 33/33/30
f 34/34/31 35/35/32 36/36/33
f 37/37/34 36/36/33 35/35/32
f 36/36/33 37/37/34 38/38/35
f 39/39/36 38/38/35 37/37/34
f 38/38/35 39/39/36 40/40/37
f 41/41/38 40/40/37 39/39/36
f 40/40/37 41/41/38 42/42/39
f 43/43/40 42/42/39 41/41/38
f 42/42/39 43/43/40 44/44/41
f 45/45/42 44/44/41 43/43/40
f 44/44/41 45/45/42 46/46/43
f 47/47/43 46/46/43 45/45/42
f 48/48/44 49/49/44 50/50/44
f 51/51/44 50/50/44 49/49/44
f 52/52/45 53/53/45 54/54/45
f 55/55/45 54/54/45 53/53/45
f 56/56/46 57/57/46 58/58/46
f 59/59/46 58/58/46 57/57/46
f 60/60/47 61/61/47 62/62/47
f 63/63/47 62/62/47 61/61/47
f 64/64/48 65/65/48 66/66/48
f 67/67/48 66/66/48 65/65/48
f 68/68/49 69/69/49 70/70/49
f 71/71/49 70/70/49 69/69/49
f 72/72/50 73/73/50 74/74/50
f 75/75/50 74/74/50 73/73/50
f 76/76/51 77/77/51 78/78/51
f 79/79/51 78/78/51 77/77/51
f 80/80/52 81/81/52 82/82/52
f 83/83/52 82/82/52 81/81/52
f 84/84/25 85/85/25 86/86/25
f 87/87/25 86/86/25 85/85/25
f 88/88/53 89/89/54 90/90/55
f 91/91/56 90/90/55 89/89/54
f 92/92/57 93/93/57 94/94/57
f 95/95/57 94/94/57 93/93/57
f 96/96/58 97/97/58 98/98/58
f 99/99/58 98/98/58 97/97/58
f 100/100/59 101/101/59 102/102/59
f 103/103/59 102/102/59 101/101/59
f 104/104/60 105/105/60 106/106/60
f 107/107/50 108/108/50 109/109/50
f 110/110/50 111/111/50 112/112/50
f 113/113/50 114/114/50 115/115/50
f 116/116/50 117/117/50 118/118/50
f 119/119/52 120/120/52 121/121/52
f 122/122/52 123/123/52 124/124/52
f 125/125/52 126/126/52 127/127/52
f 128/128/52 129/129/52 130/130/52
f 131/131/61 132/132/61 133/133/61
f 134/134/62 135/135/62 136/136/62
f 137/137/63 138/138/63 139/139/63
f 140/140/63 141/141/63 142/142/63
f 143/143/64 144/144/64 145/145/64
f 146/146/64 147/147/64 148/148/64
f 149/149/65 150/150/65 151/151/65
f 152/152/65 153/153/65 154/154/65
f 155/155/50 156/156/50 157/157/50
f 158/158/66 159/159/66 160/160/66
f 161/161/67 162/162/67 163/163/67
f 164/164/67 165/165/67 166/166/67
f 167/167/50 168/168/50 169/169/50
f 170/170/50 171/171/50 172/172/50
f 173/173/68 174/174/68 175/175/68
f 176/176/69 177/177/69 178/178/69
f 179/179/69 180/180/69 181/181/69
f 182/182/70 183/183/70 184/184/70
f 185/185/70 186/186/70 187/187/70
f 188/188/71 189/189/71 190/190/71
f 191/191/71 192/192/71 193/193/71
f 194/194/52 195/195/52 196/196/52
f 197/197/72 198/198/72 199/199/72
f 200/200/73 201/201/73 202/202/73
f 203/203/73 204/204/73 205/205/73
f 206/206/52 207/207/52 208/208/52
f 209/209/52 210/210/52 211/211/52
f 212/212/74 213/213/74 214/214/74
f 215/215/75 216/216/75 217/217/75
f 218/218/75 219/219/75 220/220/75
f 221/221/76 222/222/76 223/223/76
f 224/224/76 225/225/76 226/226/76
